<?xml version="1.0" encoding="UTF-8" standalone="no"?>
<svg
   id="Layer_1"
   data-name="Layer 1"
   viewBox="0 0 850.80353 387.82001"
   version="1.1"
   sodipodi:docname="PTT-01.svg"
   width="850.80353"
   height="387.82001"
   inkscape:version="1.4 (86a8ad7, 2024-10-11)"
   xmlns:inkscape="http://www.inkscape.org/namespaces/inkscape"
   xmlns:sodipodi="http://sodipodi.sourceforge.net/DTD/sodipodi-0.dtd"
   xmlns="http://www.w3.org/2000/svg"
   xmlns:svg="http://www.w3.org/2000/svg">
  <sodipodi:namedview
     id="namedview10"
     pagecolor="#ffffff"
     bordercolor="#000000"
     borderopacity="0.25"
     inkscape:showpageshadow="2"
     inkscape:pageopacity="0.0"
     inkscape:pagecheckerboard="0"
     inkscape:deskcolor="#d1d1d1"
     inkscape:zoom="1.1534679"
     inkscape:cx="416.1364"
     inkscape:cy="180.32578"
     inkscape:window-width="1920"
     inkscape:window-height="1001"
     inkscape:window-x="-9"
     inkscape:window-y="-9"
     inkscape:window-maximized="1"
     inkscape:current-layer="Layer_1" />
  <defs
     id="defs1">
    <style
       id="style1">.cls-1{fill:#1b1464;}.cls-2{fill:#00adee;}.cls-3{fill:#ec1c24;}</style>
  </defs>
  <path
     class="cls-1"
     d="m 540.2835,347.19 2.42,-7.16 h 32.6 l -7.53,22.31 q -18.21,9.42 -35,9.39 -11.11,0 -18.8,-3.62 -8.39,-3.88 -10.7,-11.13 -2.31,-7.25 0.64,-16.1 a 43.4,43.4 0 0 1 9.73,-15.89 45.26,45.26 0 0 1 17.75,-11.74 62,62 0 0 1 21.64,-3.72 q 17.54,0 22.92,8 2.52,3.75 2.51,9.86 l -9.8,1.93 q -0.39,-8.58 -7.87,-11.36 a 29.78,29.78 0 0 0 -10,-1.54 q -13.37,0 -22.35,6 a 34.15,34.15 0 0 0 -13.88,18 q -5.42,16.08 6.63,21.41 a 32.74,32.74 0 0 0 13.43,2.65 52.48,52.48 0 0 0 12.43,-1.66 46.75,46.75 0 0 0 12.06,-4.5 l 3.72,-11.06 z"
     id="path1" />
  <path
     class="cls-1"
     d="m 578.7935,370.81 14.75,-43.72 h 8.53 l -2.21,6.56 q 7.86,-7.53 14.55,-7.52 a 17.73,17.73 0 0 1 8.9,2.37 l -5.55,6.78 a 13.46,13.46 0 0 0 -17.26,3.92 30.67,30.67 0 0 0 -4.5,8.67 l -7.74,22.95 z"
     id="path2" />
  <path
     class="cls-1"
     d="m 618.5735,348.97 c 2.75,-8.11 7.63,-14.09 14.71,-18 a 38.58,38.58 0 0 1 19.11,-4.78 q 12.22,0 17.19,6.38 c 3.1,4 3.57,9.32 1.35,15.88 q -5.15,15.27 -19.59,20.73 a 39.65,39.65 0 0 1 -14.41,2.72 q -12.74,0 -17.42,-6.57 -4.39,-6.12 -0.94,-16.32 m 9.62,0 c -1.6,4.72 -1.68,8.55 -0.27,11.52 1.72,3.51 5.39,5.28 11,5.29 a 21.5,21.5 0 0 0 14.7,-5.39 26.37,26.37 0 0 0 7.47,-11.6 q 2.34,-6.87 0.09,-11.34 c -1.77,-3.46 -5.43,-5.19 -11,-5.2 a 21.57,21.57 0 0 0 -14.59,5.25 25.64,25.64 0 0 0 -7.49,11.47"
     id="path3" />
  <path
     class="cls-1"
     d="m 710.8635,370.99 2.16,-6.44 a 30.7,30.7 0 0 1 -20.1,7.39 c -7.15,0 -11.75,-1.75 -13.75,-5.22 a 9,9 0 0 1 -1,-5.5 32.51,32.51 0 0 1 1.76,-6.94 l 9.12,-27.06 h 9.46 l -8.19,24.27 c -1.33,3.94 -2,6.56 -2,7.84 -0.19,4.19 2.74,6.28 8.73,6.29 a 22.67,22.67 0 0 0 8.41,-1.64 17.29,17.29 0 0 0 6.95,-4.68 26.07,26.07 0 0 0 4.44,-8.6 l 7.91,-23.44 h 9.46 l -14.83,43.75 z"
     id="path4" />
  <path
     class="cls-1"
     d="m 728.7335,387.78 20.39,-60.48 h 8.68 l -1.92,5.7 a 28.5,28.5 0 0 1 18.32,-6.66 c 10,0 15.66,3.68 17.06,11 a 23.31,23.31 0 0 1 -1.17,11.56 32.2,32.2 0 0 1 -18.77,20.29 33.89,33.89 0 0 1 -13.2,2.85 c -6.05,0 -10.27,-1.87 -12.73,-5.6 l -7.21,21.38 z m 21.51,-38.32 q -2.25,6.65 -0.58,11 2.06,5.46 9.93,5.45 a 19.53,19.53 0 0 0 14,-5.7 28.06,28.06 0 0 0 7,-11.39 c 1.46,-4.35 1.64,-8.05 0.53,-11.07 -1.39,-3.73 -4.66,-5.59 -9.78,-5.6 a 19.66,19.66 0 0 0 -13.93,5.88 27.83,27.83 0 0 0 -7.22,11.39"
     id="path5" />
  <path
     class="cls-1"
     d="m 556.6335,253.98 c -24.72,55.09 -106,62.74 -142.87,63.28 l 9.28,-28.85 c 21.11,-3.47 54.13,-17.46 69.62,-69.31 11.12,-37.22 -7.77,-32.83 -27.81,-32.83 h -26.46 l -34.46,102.84 -9.86,31.25 -11.53,33.61 c -2.1,5.85 -4.65,9.15 -10,13 -6.18,4.37 -11.27,5.93 -19.17,5.85 h -52.57 l 67.87,-205.23 c 2.11,-5.41 7.41,-11.05 12.61,-14.75 a 27,27 0 0 1 16.75,-5.13 c 0,0 47.7,-0.25 47.22,0.1 -15,10.61 -25.06,22.72 -28.49,38.6 h 9.2 c 10.14,-19.19 35.26,-38.42 72,-38.42 26.85,0 54.2,7.3 66,28.89 l 9.56,-29.34 h 45.54 c 3.94,-11.06 4.6,-13.69 5.73,-17.22 0,0.24 87.86,-38.72 87.86,-38.72 l -18.33,56.11 h 42.07 c 3.94,-11 4.45,-13.83 5.58,-17.37 0,0.25 87.87,-38.72 87.87,-38.72 l -18.21,56.11 h 39.17 l -12.08,37.82 h -39.25 c 0,0 -20.85,63.5 -25.63,77.77 -7.25,21.74 0,26.67 24.8,26.67 -0.18,-0.7 -8.88,26.52 -8.88,26.52 0,0 -45.81,0.22 -59.52,0 -24.62,-0.4 -43.87,-16.13 -34.8,-44.33 5.7,-17.75 28.83,-86.63 28.83,-86.63 h -42.1 c 0,0 -20.88,63.5 -25.65,77.77 -7.24,21.74 0,26.67 24.8,26.67 -0.16,-0.7 -8.89,26.52 -8.89,26.52 h -59.49 c -25.91,0 -44.31,-15.37 -34.41,-44.59 6,-17.66 28.4,-86.37 28.4,-86.37 h -39.41 c 4.9,16.08 2.66,38.28 -10.89,68.47"
     id="path6" />
  <path
     class="cls-2"
     d="m 171.7535,0 c -16.55,39.89 -26,63.75 -22.84,97.72 3.36,36.23 28,65.28 50.62,89.54 18.24,19.59 29.25,32 34.33,54.45 3.53,15.59 7.53,48.62 -15.87,80.36 -28,38 -73.24,39.31 -73.24,39.31 v 11.42 c 0,0 53.88,-2.11 90.56,-35.44 25.35,-23 34.34,-43 41,-74 5.62,-26.33 -1.12,-63.86 -17.55,-92.72 a 260.29,260.29 0 0 0 -29,-41 c -19.13,-22.27 -32.84,-37.15 -45,-54.9 -11.25,-16.45 -18.24,-30.39 -18.24,-44.78 0,-14 5.63,-28.82 5.63,-28.82 z"
     id="path7" />
  <path
     class="cls-2"
     d="m 106.5135,0 c 16.54,39.89 26,63.75 22.84,97.72 -3.37,36.23 -28,65.28 -50.619997,89.54 -18.23,19.59 -29.25,32 -34.32,54.45 -3.5,15.59 -7.54,48.62 15.86,80.36 28,38 73.239997,39.31 73.239997,39.31 v 11.42 c 0,0 -53.879997,-2.11 -90.569997,-35.44 -25.34,-23 -34.3399996,-43 -40.9999996,-74 -5.61,-26.33 1.13,-63.86 17.5699996,-92.72 a 259,259 0 0 1 29,-41 c 19.12,-22.27 32.83,-37.15 45,-54.9 C 104.7635,58.29 111.7235,44.35 111.7235,29.96 c 0,-14 -5.61,-28.82 -5.61,-28.82 z"
     id="path8" />
  <path
     class="cls-1"
     d="m 156.7435,149.19 c 7.86,12.88 27.78,37.27 43.93,52.78 a 87.41,87.41 0 0 1 26.72,63.3 88.3,88.3 0 1 1 -150.729997,-62.43 c 7.74,-7.74 31.229997,-32 44.539997,-53.65 14.14,-23 17.88,-43.16 17.88,-43.16 0,0 3.53,20.1 17.62,43.16"
     id="path9" />
  <path
     class="cls-3"
     d="m 211.2735,265.27 a 72.14,72.14 0 1 1 -72.15,-72.14 72.14,72.14 0 0 1 72.15,72.14"
     id="path10" />
</svg>
