<?xml version="1.0" encoding="utf-8"?>
<!-- Generator: Adobe Illustrator 20.1.0, SVG Export Plug-In . SVG Version: 6.00 Build 0)  -->
<svg version="1.1" id="Layer_1" xmlns="http://www.w3.org/2000/svg" xmlns:xlink="http://www.w3.org/1999/xlink" x="0px" y="0px"
	 viewBox="0 0 177.7 256" style="enable-background:new 0 0 177.7 256;" xml:space="preserve">
<style type="text/css">
	.st0{fill:#B2D235;}
	.st1{fill-rule:evenodd;clip-rule:evenodd;fill:#FFFFFF;}
	.st2{fill-rule:evenodd;clip-rule:evenodd;fill:#ED1D24;}
	.st3{fill-rule:evenodd;clip-rule:evenodd;}
	.st4{fill-rule:evenodd;clip-rule:evenodd;fill:#FFDD00;}
</style>
<rect class="st0" width="177.7" height="256.1"/>
<path class="st1" d="M92.6,56.2c-34.5,12.5-60.1,43.9-65.9,82.2c-6.7,48,24.7,85.5,73.5,85c10.7-0.1,34-2.4,44.7-7l10.6-63.3
	c-11.1,9.3-23.3,16-37.5,16.1c-18.3,0.2-31.7-14.5-29.3-32.9c2.9-18.4,20-33.3,38.4-33.5c13.7-0.1,25,7.9,33.7,17l8.9-64.3
	c0,0-26.3-5.8-43.3-5C113.1,51,92.6,56.2,92.6,56.2"/>
<path class="st1" d="M126.5,50.7c16-0.7,40.6,4.5,43,5c-0.1,0.5-8.7,62.6-8.8,63.6c-11-11.4-22-16.9-33.5-16.8
	c-18.4,0.2-35.7,15.3-38.6,33.7c-1.1,8.9,1.3,17.2,6.8,23.4c5.6,6.3,13.7,9.8,22.7,9.7c12.4-0.1,24.3-5.2,37.1-15.8
	c-0.2,1.3-10.4,62.3-10.5,62.5c-10.9,4.7-34.3,6.9-44.5,7c-23.1,0.2-43.3-8.2-56.9-23.7c-11.2-12.8-17.2-29.4-17.3-47.7
	c0-4.4,0.3-8.8,0.9-13.3c5.7-37.9,30.9-69.3,65.7-82C93.1,56.3,113.4,51.2,126.5,50.7 M126.5,50.2c-13.2,0.6-33.7,5.7-33.9,5.7l0,0
	c-35,12.7-60.3,44.3-66,82.4C23.2,162,29,183.9,43,199.8c13.7,15.6,34,24,57.3,23.8c10.3-0.1,33.9-2.3,44.8-7.1l0.1-0.1l10.7-64.1
	l-0.5,0.5c-13,10.8-24.8,16-37.3,16.1c-8.9,0.1-16.8-3.3-22.4-9.5c-5.5-6.2-7.8-14.3-6.7-23c2.8-18.2,19.9-33.1,38.1-33.3
	c11.6-0.1,22.5,5.5,33.5,17l0.3,0.4l9-65.1l-0.3-0.1C169.6,55.2,143.3,49.5,126.5,50.2"/>
<path class="st2" d="M87.9,53C53.4,65.6,27.8,96.9,22,135.2c-6.7,48,24.7,85.5,73.5,85c10.7-0.1,34.1-2.4,44.7-7.1l10.6-63.3
	c-11.1,9.3-23.2,16-37.5,16.1c-18.3,0.2-31.7-14.5-29.3-32.9c2.9-18.4,20.1-33.3,38.4-33.5c13.7-0.2,25,7.9,33.7,17l8.9-64.3
	c0,0-24.7-6.7-40.8-6.3C109.9,46.5,87.9,53,87.9,53"/>
<polygon class="st3" points="55.5,62.8 51.6,90.4 64.4,90.3 68.2,62.7 "/>
<path class="st3" d="M69.6,54c1-3.6-1.6-6.1-5.6-6.1c-4.1,0-7.6,2.6-8.1,6.2c-0.5,4.6,2.6,6.6,6.2,6.6C65.6,60.6,69.1,58.6,69.6,54"
	/>
<path class="st3" d="M20.7,51.4L15,90.2L33.3,90c6.6,0,14.2-2.7,15.2-10.3c0.5-5.1-1.6-8.1-5.2-9.7c3.5-1,5.5-4.6,6-7.7
	c0.9-9.2-6.2-11.2-13.3-11.1L20.7,51.4z M32.1,66.6l-1,0l0.4-5.6l1,0c2,0,4.6-0.5,4.1,2.5C36.2,66,34.1,66.6,32.1,66.6 M28.7,80.9
	l0.9-6.1l1.5,0c2,0,5.6,0,5.1,3c-0.5,3.1-3.5,3.1-6.1,3.1L28.7,80.9"/>
<path class="st3" d="M100.5,88.4l3.8-26l-12.7,0.1l0,4.1h-0.5c-1.1-3-3.6-4.6-6.7-4.5c-7.6,0.1-12.6,7.3-13.6,14.4
	c-1,6.6,2.1,14.3,9.3,14.2c3.1,0,6.6-1.6,8.6-4.7l-0.5,2.5c-0.5,3.6-3,6.2-6.5,6.2c-3.1,0-6.7-1-8.7-3l-4,9.2l1,0.5
	c3.6,1.5,6.7,2,10.7,2C89.9,103.3,99,99.1,100.5,88.4 M86.7,79.9c-2.1,0-3.6-1.5-3.1-3.5c0.5-2.1,2-4.1,4-4.1c2,0,3.1,2,2.6,4.1
	C90.2,78.3,88.7,79.8,86.7,79.9"/>
<polygon class="st4" points="52.4,58.4 48.6,86 60.8,85.9 64.6,58.3 "/>
<path class="st4" d="M66.5,49.6c0.5-3.6-2.1-6.1-6.2-6.1c-4.1,0-7.1,2.6-7.6,6.2c-1,4.6,2.1,6.6,5.7,6.6
	C62.5,56.3,66.1,54.2,66.5,49.6"/>
<path class="st4" d="M17.2,47l-5.3,38.8l18.3-0.2c6.6,0,13.7-2.7,15.2-10.3c0.5-5.1-1.6-8.1-5.7-9.6c3.5-1,5.5-4.6,6-8.2
	c1.5-8.7-5.7-10.7-12.8-10.6L17.2,47z M29,62.2l-1.5,0l1-5.6l1,0c2,0,4.6-0.6,4.1,2.5C33.1,61.6,31,62.2,29,62.2 M25.6,76.5l1-6.1
	l1.5,0c2.1,0,5.6-0.1,5.1,3c-0.5,3.1-4,3.1-6.1,3.1L25.6,76.5"/>
<path class="st4" d="M83.6,75.5c-2.6,0-3.6-1.5-3.1-3.5c0-2.1,2-4.1,4-4.1c2,0,3.1,2,2.6,4.1C86.6,73.9,85.6,75.4,83.6,75.5
	 M97.4,84l3.3-26l-12.2,0.1l0,4.1H88c-1.5-3-3.6-4.6-7.1-4.5c-7.1,0-12.2,7.2-13.1,14.4c-0.9,6.6,2.2,14.3,9.3,14.2
	c3.1,0,6.6-1.6,8.1-4.7l0.5,0l-0.5,2.6c-0.5,3.6-3.5,6.2-7.1,6.2c-3.1,0-6.1-1-8.7-3l-4,9.2L67,97c3.5,1,6.6,2,10.7,1.9
	C86.8,98.9,95.9,94.7,97.4,84"/>
<path class="st1" d="M19.2,40.4l0.6-3.8l-3,0l-0.7,3.9c0,0.3-0.3,0.6-0.6,0.6c-0.3,0-0.4-0.3-0.4-0.6l0.7-3.9l-3,0l-0.6,3.8
	c-0.3,1.7,1.5,2.4,3.1,2.4C17,42.8,18.9,42,19.2,40.4"/>
<polygon class="st1" points="20.2,34.5 13.3,34.5 13.1,35.6 20,35.5 "/>
<path class="st1" d="M18.2,33.7l2.1,0l0.2-1.1l-0.9,0.2c0.2-0.4-0.1-1.2-1-1.3c-1-0.1-1.6,0.7-1.6,0.7s-0.4-0.9-1.3-0.7
	c-0.9,0.1-1.6,0.9-1.4,2.2l1.1,0c0-1.2,1.4-1.3,1,0l0.8,0C17.2,32.5,18.6,32.4,18.2,33.7"/>
<path class="st1" d="M24.2,36.4c-1.6,0-3.6,0.8-3.9,2.4l-0.7,3.8l3,0l0.7-3.9c0-0.3,0.3-0.6,0.6-0.6c0.3,0,0.5,0.3,0.4,0.6l-0.7,3.9
	l3.1,0l0.6-3.8C27.6,37.1,25.8,36.4,24.2,36.4"/>
<path class="st1" d="M32,38.9l-0.3,1.5c0,0.4-0.3,0.6-0.6,0.6s-0.5-0.3-0.4-0.6l0.3-1.5c0.1-0.5,0.7-0.6,0.7-1l0.3-1.5
	c-0.7,0.3-1.1,0.4-1.8,0.4c-0.7,0-1.1-0.1-1.7-0.3l-0.2,0.9c0.2-0.2,0.5-0.2,0.6,0c0.2,0.6-0.8,0.8-1,1.5l-0.3,1.5
	c-0.3,1.5,1.1,2.3,3.1,2.2c2,0,3.7-0.8,3.9-2.3l0.2-1.3c0.2-0.8-0.5-0.8-0.5-0.8v-0.1c0.4-0.1,0.7-0.3,0.8-0.9l0.2-1.5l-2.9,0
	l-0.3,2c-0.1,0.5-0.4,0.6-0.4,0.6S32.1,38.5,32,38.9"/>
<polygon class="st1" points="28.9,34.5 28.8,35.5 35.7,35.4 35.9,33.9 33.2,33.9 33.1,34.5 "/>
<g>
</g>
<g>
</g>
<g>
</g>
<g>
</g>
<g>
</g>
<g>
</g>
<g>
</g>
<g>
</g>
<g>
</g>
<g>
</g>
<g>
</g>
<g>
</g>
<g>
</g>
<g>
</g>
<g>
</g>
</svg>
